<?xml version="1.0" encoding="utf-8"?>
<!-- Generator: Adobe Illustrator 25.3.1, SVG Export Plug-In . SVG Version: 6.00 Build 0)  -->
<svg version="1.1" id="Layer_1" xmlns="http://www.w3.org/2000/svg" xmlns:xlink="http://www.w3.org/1999/xlink" x="0px" y="0px"
	 viewBox="0 0 1920 1080" style="enable-background:new 0 0 1920 1080;" xml:space="preserve">
<style type="text/css">
	.st0{fill:#FCD203;}
	.st1{clip-path:url(#SVGID_2_);}
	.st2{clip-path:url(#SVGID_6_);}
	.st3{clip-path:url(#SVGID_10_);}
	.st4{clip-path:url(#SVGID_14_);}
	.st5{clip-path:url(#SVGID_18_);}
	.st6{clip-path:url(#SVGID_22_);}
</style>
<g>
	<path d="M1033.42,964c0-193.62,156.96-350.58,350.58-350.58V964H1033.42z"/>
	<path d="M580.34,544.03c-14.98,30.02-25.99,61.05-33.27,92.49C590.69,823.89,758.5,963.56,959.04,964c0.53,0,0.96-0.43,0.96-0.96
		V771.87c0-0.52-0.42-0.94-0.94-0.94c-142.25-0.57-254.16-129.75-225.47-277.3c16.01-82.34,97.69-164.02,180.03-180.03
		c10.36-2.01,20.62-3.31,30.75-3.98C789.81,315.22,649.65,405.1,580.34,544.03z"/>
	<path d="M967.85,116.07c-239.44-4.35-436.13,192.35-431.78,431.78c0.55,30.45,4.35,60.11,11,88.67
		c7.29-31.44,18.3-62.47,33.27-92.49c69.31-138.93,209.47-228.81,364.04-234.42c134.29-8.83,246.02,97.17,246.55,229.44
		c0,0.52,0.42,0.94,0.94,0.94h191.18c0.53,0,0.96-0.43,0.96-0.96C1383.49,307.93,1198.08,120.25,967.85,116.07z"/>
</g>
</svg>
